<?xml version="1.0" standalone="no"?>
<!DOCTYPE svg PUBLIC "-//W3C//DTD SVG 20010904//EN"
 "http://www.w3.org/TR/2001/REC-SVG-20010904/DTD/svg10.dtd">
<svg version="1.0" xmlns="http://www.w3.org/2000/svg"
 width="1179.000000pt" height="566.000000pt" viewBox="0 0 1179.000000 566.000000"
 preserveAspectRatio="xMidYMid meet">

<g transform="translate(0.000000,566.000000) scale(0.100000,-0.100000)"
fill="#000000" stroke="none">
<path d="M1587 3752 l-287 -287 0 -653 0 -652 285 0 285 0 0 655 0 655 555 0
555 0 0 285 0 285 -553 0 -552 0 -288 -288z"/>
<path d="M7477 3509 c-53 -12 -87 -32 -124 -71 -40 -42 -54 -80 -54 -144 0
-99 36 -149 203 -281 111 -86 183 -165 194 -210 10 -37 -2 -103 -24 -132 -46
-63 -163 -92 -230 -57 -30 16 -90 77 -116 119 -16 26 -18 27 -46 12 -16 -8
-31 -19 -35 -25 -19 -30 94 -158 167 -190 169 -73 364 33 385 209 13 112 -55
208 -247 353 -119 90 -160 141 -160 200 0 81 50 128 135 128 60 0 107 -23 150
-72 l34 -40 35 27 36 27 -30 37 c-40 52 -101 92 -162 108 -58 15 -58 15 -111
2z"/>
<path d="M9547 3509 c-53 -12 -87 -32 -124 -71 -40 -42 -54 -80 -54 -144 0
-99 36 -149 203 -281 111 -86 183 -165 194 -210 10 -37 -2 -103 -24 -132 -46
-63 -163 -92 -230 -57 -30 16 -90 77 -116 119 -16 26 -18 27 -46 12 -16 -8
-31 -19 -35 -25 -19 -30 94 -158 167 -190 169 -73 364 33 385 209 13 112 -55
208 -247 353 -119 90 -160 141 -160 200 0 81 50 128 135 128 60 0 107 -23 150
-72 l34 -40 35 27 36 27 -30 37 c-40 52 -101 92 -162 108 -58 15 -58 15 -111
2z"/>
<path d="M4560 3010 l0 -490 45 0 45 0 0 225 0 225 33 0 c30 0 43 -14 207
-224 l175 -225 53 0 c28 -1 52 2 52 5 0 3 -77 103 -170 221 -94 119 -168 218
-166 220 2 3 36 9 76 14 168 21 254 109 253 259 0 100 -48 177 -138 222 -44
23 -175 37 -357 37 l-108 1 0 -490z m437 364 c15 -11 39 -36 51 -55 20 -28 23
-44 20 -92 -7 -98 -58 -142 -181 -158 -39 -6 -109 -7 -154 -4 l-83 7 0 165 0
165 159 -4 c143 -3 162 -5 188 -24z"/>
<path d="M5515 3018 c-126 -266 -230 -486 -232 -490 -2 -5 18 -8 45 -8 l49 0
76 160 76 160 219 0 219 0 76 -160 76 -160 47 0 c40 0 45 2 39 18 -23 61 -449
962 -455 962 -4 0 -110 -217 -235 -482z m323 100 l81 -173 -166 -3 c-91 -1
-168 -1 -170 1 -5 6 159 347 167 347 4 0 43 -78 88 -172z"/>
<path d="M6495 3018 c-126 -266 -230 -486 -232 -490 -2 -5 18 -8 45 -8 l49 0
76 160 76 160 219 0 219 0 76 -160 76 -160 47 0 c40 0 45 2 39 18 -23 61 -449
962 -455 962 -4 0 -110 -217 -235 -482z m323 100 l81 -173 -166 -3 c-91 -1
-168 -1 -170 1 -5 6 159 347 167 347 4 0 43 -78 88 -172z"/>
<path d="M7990 3010 l0 -490 275 0 275 0 0 50 0 50 -235 0 -235 0 0 190 0 190
235 0 235 0 0 50 0 50 -235 0 -235 0 0 150 0 150 235 0 235 0 0 50 0 50 -275
0 -275 0 0 -490z"/>
<path d="M8700 3010 l0 -490 275 0 275 0 0 50 0 50 -235 0 -235 0 0 190 0 190
235 0 235 0 0 50 0 50 -235 0 -235 0 0 150 0 150 235 0 235 0 0 50 0 50 -275
0 -275 0 0 -490z"/>
<path d="M2895 2466 l690 -685 374 0 375 -1 -690 684 -689 685 -375 0 -374 1
689 -684z"/>
<path d="M5285 2205 c-71 -25 -135 -118 -135 -196 0 -52 24 -105 64 -145 131
-131 350 -40 349 145 0 149 -137 245 -278 196z m169 -49 c136 -103 68 -326
-99 -326 -107 0 -189 121 -156 230 36 119 162 167 255 96z"/>
<path d="M7209 2205 c-32 -17 -53 -65 -44 -97 3 -13 41 -55 83 -94 69 -65 76
-75 76 -109 0 -27 -6 -43 -23 -56 -35 -29 -69 -24 -106 16 -28 29 -35 32 -45
20 -10 -12 -6 -20 17 -44 63 -63 165 -45 192 34 12 37 12 45 -4 79 -10 21 -44
59 -76 85 -71 56 -89 90 -65 126 20 31 54 32 90 4 31 -24 67 -19 45 7 -34 41
-95 54 -140 29z"/>
<path d="M4530 2010 c0 -193 1 -200 20 -200 19 0 20 7 20 100 l0 100 43 0
c107 1 157 32 157 99 0 73 -47 101 -172 101 l-68 0 0 -200z m178 154 c16 -11
22 -25 22 -54 0 -52 -26 -70 -102 -70 l-58 0 0 70 0 70 58 0 c36 0 66 -6 80
-16z"/>
<path d="M4850 2011 c0 -194 1 -201 20 -201 19 0 20 7 20 95 0 70 3 95 13 95
6 0 43 -43 82 -95 52 -72 75 -95 92 -95 21 0 16 9 -46 93 l-69 92 45 12 c54
14 69 26 82 66 14 42 1 86 -32 111 -21 15 -47 21 -117 24 l-90 4 0 -201z m185
144 c14 -13 25 -36 25 -50 0 -14 -11 -37 -25 -50 -20 -21 -34 -25 -85 -25
l-60 0 0 75 0 75 60 0 c51 0 65 -4 85 -25z"/>
<path d="M5640 2010 c0 -193 1 -200 20 -200 19 0 20 7 20 100 l0 100 43 0
c107 1 157 32 157 99 0 73 -47 101 -172 101 l-68 0 0 -200z m178 154 c16 -11
22 -25 22 -54 0 -52 -26 -70 -102 -70 l-58 0 0 70 0 70 58 0 c36 0 66 -6 80
-16z"/>
<path d="M5950 2010 l0 -200 110 0 c91 0 110 3 110 15 0 12 -17 15 -90 15
l-90 0 0 90 0 90 90 0 c73 0 90 3 90 15 0 12 -17 15 -90 15 l-90 0 0 65 0 65
90 0 c73 0 90 3 90 15 0 12 -19 15 -110 15 l-110 0 0 -200z"/>
<path d="M6240 2011 c0 -194 1 -201 20 -201 19 0 20 7 20 95 0 70 3 95 13 95
6 0 43 -43 82 -95 52 -72 75 -95 92 -95 21 0 16 9 -46 93 l-69 92 45 12 c54
14 69 26 82 66 14 42 1 86 -32 111 -21 15 -47 21 -117 24 l-90 4 0 -201z m185
144 c14 -13 25 -36 25 -50 0 -14 -11 -37 -25 -50 -20 -21 -34 -25 -85 -25
l-60 0 0 75 0 75 60 0 c51 0 65 -4 85 -25z"/>
<path d="M6520 2195 c0 -11 12 -15 45 -15 l45 0 0 -185 c0 -178 1 -185 20
-185 19 0 20 7 20 185 l0 185 45 0 c33 0 45 4 45 15 0 12 -19 15 -110 15 -91
0 -110 -3 -110 -15z"/>
<path d="M6770 2010 c0 -193 1 -200 20 -200 19 0 20 7 20 200 0 193 -1 200
-20 200 -19 0 -20 -7 -20 -200z"/>
<path d="M6900 2010 l0 -200 110 0 c91 0 110 3 110 15 0 12 -17 15 -90 15
l-90 0 0 90 0 90 90 0 c73 0 90 3 90 15 0 12 -17 15 -90 15 l-90 0 0 65 0 65
90 0 c73 0 90 3 90 15 0 12 -19 15 -110 15 l-110 0 0 -200z"/>
</g>
</svg>
